<mxfile host="app.diagrams.net" modified="2024-02-20T00:37:32.963Z" agent="Mozilla/5.0 (Windows NT 10.0; Win64; x64) AppleWebKit/537.36 (KHTML, like Gecko) Chrome/121.0.0.0 Safari/537.36" version="23.1.2" etag="pH8zpBZ3vlxz9MPm1kC2" type="github">
  <diagram name="Page-1" id="6gUFLvYw6ku634OrvVj0">
    <mxGraphModel>
      <root>
        <mxCell id="0" />
        <mxCell id="1" parent="0" />
      </root>
    </mxGraphModel>
  </diagram>
</mxfile>
